# File created by Blade
# Date/Time:  Thu Sep 25 15:55:53 2014
# Frame Rate: 120.000 fps
#------------------------------------------------------
:FULLY-SPECIFIED
:DEGREES
409
root -2.138998 33.733574 -1.056275 20.630079 7.274447 32.096755
Spine -7.783084 3.108768 -3.639918
Head -24.003465 -6.742153 -14.409155
LeftShoulder 6.269144 8.103083 14.138208
LeftArm 57.937850 22.427381 -61.917407
LeftForeArm 25.277928 -0.000000 58.554609
LeftHand -20.306415 -0.000000 -1.584717
LeftHandThumb1 -26.253704 0.000000 33.147579
RightShoulder -2.754546 20.877370 -28.458396
RightArm 9.351484 8.169570 41.210042
RightForeArm -19.943418 -0.000000 56.410038
RightHand -2.181736 -0.000000 -0.038464
RightHandThumb1 -24.326973 -0.000000 -32.862282
LeftUpLeg -31.913165 1.756093 2.894377
LeftLeg 7.380764 -0.000000 -0.000000
LeftFoot 16.511135 21.751112 -11.051540
LeftToeBase -0.182851 -0.000000 0.000000
RightUpLeg -29.055309 -12.212631 -28.048926
RightLeg 30.282163 -0.000000 -0.000000
RightFoot -14.497443 -18.872389 -5.197326
RightToeBase -1.721560 -0.000000 0.000000
410
root -2.223936 33.836558 -1.088092 20.567304 7.648094 33.259080
Spine -7.222331 3.528361 -5.098073
Head -23.759924 -7.829424 -14.550459
LeftShoulder 6.450137 8.169757 13.434233
LeftArm 58.447943 23.115092 -60.567251
LeftForeArm 24.900984 0.000000 56.857408
LeftHand -20.244742 -0.000000 -1.638317
LeftHandThumb1 -26.253704 0.000000 33.147579
RightShoulder -2.608174 20.933265 -28.855466
RightArm 9.216324 8.451526 42.336428
RightForeArm -20.301804 -0.000000 56.655509
RightHand -2.308161 -0.000000 0.096973
RightHandThumb1 -24.326973 -0.000000 -32.862282
LeftUpLeg -32.627534 2.799264 4.408072
LeftLeg 7.486010 -0.000000 -0.000000
LeftFoot 18.787084 22.280173 -9.613840
LeftToeBase 0.209016 -0.000000 -0.000000
RightUpLeg -28.251780 -12.768068 -29.035182
RightLeg 29.660370 -0.000000 -0.000000
RightFoot -14.112588 -18.801141 -5.292596
RightToeBase -1.491843 -0.000000 0.000000
411
root -2.307095 33.942315 -1.112467 20.479148 8.210740 34.548450
Spine -6.554645 3.823319 -6.710241
Head -23.488101 -9.058329 -14.613301
LeftShoulder 6.630649 8.245526 12.787963
LeftArm 59.099194 23.754746 -59.204781
LeftForeArm 24.930852 -0.000000 55.043805
LeftHand -20.067928 0.000000 -1.969353
LeftHandThumb1 -26.253704 0.000000 33.147579
RightShoulder -2.616855 20.841220 -29.207884
RightArm 9.045342 8.591891 43.470323
RightForeArm -20.954373 -0.000000 57.070753
RightHand -2.770798 -0.000000 -0.305513
RightHandThumb1 -24.326973 -0.000000 -32.862282
LeftUpLeg -33.341580 3.786217 5.814322
LeftLeg 7.504990 -0.000000 -0.000000
LeftFoot 21.161889 22.644344 -8.256313
LeftToeBase 0.578317 -0.000000 -0.000000
RightUpLeg -27.211583 -13.439095 -30.135310
RightLeg 28.982892 -0.000000 -0.000000
RightFoot -13.799200 -18.769035 -5.070661
RightToeBase -1.486447 -0.000000 0.000000
412
root -2.391507 34.043858 -1.128528 20.403820 8.965636 35.812137
Spine -5.853427 3.938898 -8.259571
Head -23.165058 -10.261863 -14.613459
LeftShoulder 6.736831 8.296931 12.228133
LeftArm 59.660483 24.383779 -58.108065
LeftForeArm 25.058852 -0.000000 53.172504
LeftHand -19.808621 -0.000000 -2.546193
LeftHandThumb1 -26.253704 0.000000 33.147579
RightShoulder -2.653481 20.722759 -29.540999
RightArm 8.771434 8.697677 44.697422
RightForeArm -21.740055 -0.000000 57.670083
RightHand -2.864934 -0.000000 -0.087746
RightHandThumb1 -24.326973 -0.000000 -32.862282
LeftUpLeg -34.131353 4.855553 7.207951
LeftLeg 7.413010 -0.000000 -0.000000
LeftFoot 23.758320 23.131883 -7.023933
LeftToeBase 0.874360 -0.000000 -0.000000
RightUpLeg -26.057469 -14.272858 -31.161545
RightLeg 28.336136 -0.000000 -0.000000
RightFoot -13.616180 -18.660280 -4.798437
RightToeBase -1.158588 -0.000000 0.000000
413
root -2.475228 34.145063 -1.140633 20.320321 9.943859 37.132897
Spine -5.027956 3.917521 -9.794216
Head -22.835110 -11.599743 -14.605583
LeftShoulder 6.924071 8.238718 11.674449
LeftArm 60.116796 24.954012 -57.140819
LeftForeArm 25.491431 -0.000000 51.248343
LeftHand -19.472185 0.000000 -3.075302
LeftHandThumb1 -26.253704 0.000000 33.147579
RightShoulder -2.827249 20.517036 -29.957288
RightArm 8.467080 8.755467 46.087233
RightForeArm -22.488423 -0.000000 58.279451
RightHand -2.813841 -0.000000 -0.088993
RightHandThumb1 -24.326973 -0.000000 -32.862282
LeftUpLeg -34.986447 5.842411 8.563132
LeftLeg 7.310642 -0.000000 -0.000000
LeftFoot 25.819722 23.720507 -6.744224
LeftToeBase 1.921783 -0.000000 -0.000000
RightUpLeg -24.665477 -15.206948 -32.254289
RightLeg 27.663199 -0.000000 -0.000000
RightFoot -13.469431 -18.602584 -4.491566
RightToeBase -0.873853 -0.000000 0.000000
414
root -2.552871 34.241813 -1.151153 20.302619 11.060938 38.475753
Spine -4.197022 3.690505 -11.361372
Head -22.492029 -12.877762 -14.383364
LeftShoulder 7.040493 8.271900 11.282929
LeftArm 60.582484 25.451681 -56.335294
LeftForeArm 25.652184 -0.000000 49.313409
LeftHand -18.673621 -0.000000 -3.602675
LeftHandThumb1 -26.253704 0.000000 33.147579
RightShoulder -2.974803 20.354285 -30.189534
RightArm 8.093973 8.704967 47.307570
RightForeArm -22.705114 -0.000000 58.992204
RightHand -3.182788 -0.000000 -0.096542
RightHandThumb1 -24.326973 -0.000000 -32.862282
LeftUpLeg -36.006180 6.815327 9.849519
LeftLeg 7.177516 -0.000000 -0.000000
LeftFoot 27.946655 24.491019 -6.611338
LeftToeBase 2.705800 -0.000000 -0.000000
RightUpLeg -23.173769 -16.234474 -33.382304
RightLeg 26.985755 -0.000000 -0.000000
RightFoot -13.439234 -18.532118 -4.069086
RightToeBase -0.461825 -0.000000 0.000000
415
root -2.628228 34.335438 -1.148695 20.136158 12.226806 39.757691
Spine -3.135122 3.565363 -12.814226
Head -22.088229 -14.324000 -14.282976
LeftShoulder 7.233648 8.390303 10.820442
LeftArm 61.164216 25.813829 -55.450247
LeftForeArm 25.209718 -0.000000 47.353460
LeftHand -18.155406 -0.000000 -3.822861
LeftHandThumb1 -26.253704 0.000000 33.147579
RightShoulder -3.172696 20.204017 -30.429460
RightArm 7.640104 8.522841 48.593667
RightForeArm -22.957997 -0.000000 59.758304
RightHand -3.556403 0.000000 -0.198882
RightHandThumb1 -24.326973 -0.000000 -32.862282
LeftUpLeg -36.907392 7.824524 11.191666
LeftLeg 7.013388 -0.000000 -0.000000
LeftFoot 29.631697 25.125968 -6.899370
LeftToeBase 3.679090 -0.000000 -0.000000
RightUpLeg -21.439613 -17.256330 -34.510436
RightLeg 26.252905 -0.000000 -0.000000
RightFoot -13.499194 -18.204623 -3.554373
RightToeBase -0.002083 -0.000000 0.000000
416
root -2.692457 34.424636 -1.142012 20.041198 13.496588 41.026594
Spine -2.091568 3.331831 -14.210160
Head -21.656429 -15.765015 -14.088675
LeftShoulder 7.402526 8.394607 10.427809
LeftArm 61.627821 26.253932 -54.718816
LeftForeArm 24.393835 -0.000000 45.405521
LeftHand -17.873155 -0.000000 -3.885281
LeftHandThumb1 -26.253704 0.000000 33.147579
RightShoulder -3.365637 20.100167 -30.632269
RightArm 7.067881 8.417254 49.862543
RightForeArm -23.285442 -0.000000 60.585322
RightHand -3.364100 -0.000000 0.240162
RightHandThumb1 -24.326973 -0.000000 -32.862282
LeftUpLeg -37.970476 8.738369 12.561007
LeftLeg 6.887244 -0.000000 -0.000000
LeftFoot 31.150140 25.488838 -7.000513
LeftToeBase 4.448713 -0.000000 -0.000000
RightUpLeg -19.592826 -18.313265 -35.656501
RightLeg 25.441239 -0.000000 -0.000000
RightFoot -13.575590 -18.015553 -3.054284
RightToeBase 0.426318 -0.000000 -0.000000
417
root -2.758667 34.502142 -1.135088 19.911275 14.743087 42.119269
Spine -0.972669 3.206533 -15.440231
Head -21.333108 -17.261428 -13.743886
LeftShoulder 7.652280 8.417618 10.059650
LeftArm 62.140123 26.537275 -53.899723
LeftForeArm 23.804542 -0.000000 43.491216
LeftHand -17.246986 -0.000000 -4.054816
LeftHandThumb1 -26.253704 0.000000 33.147579
RightShoulder -3.578087 19.875158 -30.728807
RightArm 6.581771 8.202720 50.945291
RightForeArm -23.875005 -0.000000 61.459454
RightHand -3.718798 -0.000000 0.351727
RightHandThumb1 -24.326973 -0.000000 -32.862282
LeftUpLeg -39.078106 9.758798 14.105254
LeftLeg 6.789691 -0.000000 -0.000000
LeftFoot 32.368360 25.269145 -6.955455
LeftToeBase 5.954815 -0.000000 -0.000000
RightUpLeg -17.777514 -19.226089 -36.667881
RightLeg 24.694848 -0.000000 -0.000000
RightFoot -13.676692 -17.752382 -2.431224
RightToeBase 0.763371 -0.000000 -0.000000
418
root -2.807839 34.578483 -1.116777 19.790877 15.941607 43.240834
Spine 0.148706 3.102226 -16.691230
Head -20.924285 -18.722369 -13.454751
LeftShoulder 7.840370 8.263862 9.730547
LeftArm 62.650556 27.101168 -52.914934
LeftForeArm 22.359526 -0.000000 41.675586
LeftHand -17.655208 -0.000000 -2.710350
LeftHandThumb1 -26.253704 0.000000 33.147579
RightShoulder -3.899834 19.557124 -30.817014
RightArm 6.240493 7.755254 51.969084
RightForeArm -24.379700 -0.000000 62.302824
RightHand -3.761983 0.000000 0.739953
RightHandThumb1 -24.326973 -0.000000 -32.862282
LeftUpLeg -40.228435 10.816964 15.568002
LeftLeg 6.737449 -0.000000 -0.000000
LeftFoot 33.444960 24.677628 -6.542924
LeftToeBase 7.089099 -0.000000 -0.000000
RightUpLeg -15.906971 -20.152359 -37.778155
RightLeg 23.946679 -0.000000 -0.000000
RightFoot -13.892184 -17.326370 -1.732813
RightToeBase 1.101146 -0.000000 -0.000000
419
root -2.848598 34.647985 -1.100978 19.694669 17.092749 44.265854
Spine 1.253827 3.025138 -17.863349
Head -20.602795 -20.131198 -12.993956
LeftShoulder 7.978551 8.253866 9.427796
LeftArm 63.284518 27.469874 -52.018449
LeftForeArm 22.134048 -0.000000 39.924945
LeftHand -17.401811 -0.000000 -2.480498
LeftHandThumb1 -26.253704 0.000000 33.147579
RightShoulder -4.130665 19.428686 -30.817005
RightArm 5.675990 7.245316 52.873848
RightForeArm -24.809637 -0.000000 63.170756
RightHand -3.637228 0.000000 1.352253
RightHandThumb1 -24.326973 -0.000000 -32.862282
LeftUpLeg -41.411293 11.864306 17.151857
LeftLeg 6.618407 -0.000000 -0.000000
LeftFoot 34.266239 24.182236 -6.034574
LeftToeBase 8.330662 -0.000000 -0.000000
RightUpLeg -14.101918 -21.001621 -38.831978
RightLeg 23.225692 -0.000000 -0.000000
RightFoot -14.048672 -16.943727 -1.085756
RightToeBase 1.293249 -0.000000 -0.000000
420
root -2.885269 34.707383 -1.088814 19.639000 18.128513 45.149455
Spine 2.256400 3.102931 -18.931128
Head -20.223181 -21.470165 -12.516141
LeftShoulder 8.211536 8.225343 9.168789
LeftArm 63.953662 27.808117 -51.049034
LeftForeArm 22.063789 -0.000000 38.323186
LeftHand -17.478956 0.000000 -2.610690
LeftHandThumb1 -26.253704 0.000000 33.147579
RightShoulder -4.395098 19.182185 -30.793725
RightArm 5.144424 6.678264 53.707728
RightForeArm -25.266560 -0.000000 64.016964
RightHand -3.681824 -0.000000 1.587757
RightHandThumb1 -24.326973 -0.000000 -32.862282
LeftUpLeg -42.685747 13.130141 18.751076
LeftLeg 6.499782 -0.000000 -0.000000
LeftFoot 35.024466 23.760747 -5.328140
LeftToeBase 8.947663 -0.000000 -0.000000
RightUpLeg -12.489104 -21.619340 -39.752162
RightLeg 22.575924 -0.000000 -0.000000
RightFoot -14.145753 -16.721378 -0.532757
RightToeBase 1.476158 -0.000000 -0.000000
